<svg id="Capa_1" enable-background="new 0 0 512 512" height="512" viewBox="0 0 512 512" width="512" xmlns="http://www.w3.org/2000/svg" fill="#fff"><g><path d="m62.705 268.111h76.969c4.143 0 7.5-3.357 7.5-7.5s-3.357-7.5-7.5-7.5h-76.969c-4.143 0-7.5 3.357-7.5 7.5s3.358 7.5 7.5 7.5z"/><path d="m61.767 322.728h246.29c4.143 0 7.5-3.357 7.5-7.5s-3.357-7.5-7.5-7.5h-246.29c-4.143 0-7.5 3.357-7.5 7.5s3.357 7.5 7.5 7.5z"/><path d="m308.823 362.344h-247.056c-4.143 0-7.5 3.357-7.5 7.5s3.357 7.5 7.5 7.5h247.057c4.143 0 7.5-3.357 7.5-7.5s-3.358-7.5-7.501-7.5z"/><path d="m160.324 416.959h-97.619c-4.143 0-7.5 3.357-7.5 7.5s3.357 7.5 7.5 7.5h97.619c4.143 0 7.5-3.357 7.5-7.5s-3.357-7.5-7.5-7.5z"/><path d="m490.5 353.071c-4.143 0-7.5 3.357-7.5 7.5v40.548c0 6.893-5.607 12.5-12.5 12.5h-29.5c-4.143 0-7.5 3.357-7.5 7.5s3.357 7.5 7.5 7.5h29.5c15.163 0 27.5-12.337 27.5-27.5v-40.548c0-4.142-3.357-7.5-7.5-7.5z"/><path d="m406 413.619h-49.41v-107.352h88.602c4.143 0 7.5-3.357 7.5-7.5s-3.357-7.5-7.5-7.5h-88.602v-41.599h88.602c4.143 0 7.5-3.357 7.5-7.5s-3.357-7.5-7.5-7.5h-88.602v-14.757c0-7.329-2.85-14.225-8.024-19.415l-109.39-109.74c-5.123-5.138-12.222-8.084-19.476-8.084h-49.014v-18.989c0-4.143-3.357-7.5-7.5-7.5s-7.5 3.357-7.5 7.5v18.989h-114.186c-15.164 0-27.5 12.336-27.5 27.5v374.328c0 15.164 12.336 27.5 27.5 27.5h287.59c15.164 0 27.5-12.336 27.5-27.5v-55.881h49.41c4.143 0 7.5-3.357 7.5-7.5s-3.357-7.5-7.5-7.5zm-74.976-209.473h-93.021c-1.379 0-2.5-1.121-2.5-2.5v-93.327zm10.566 280.354c0 6.893-5.607 12.5-12.5 12.5h-287.59c-6.893 0-12.5-5.607-12.5-12.5v-374.328c0-6.893 5.607-12.5 12.5-12.5h178.2c.269 0 .535.023.803.041v103.933c0 9.649 7.851 17.5 17.5 17.5h103.55c.015.255.037.508.037.766z"/><path d="m489.977 117.824-109.389-109.737c-5.122-5.14-12.221-8.087-19.477-8.087h-177.924c-15.163 0-27.5 12.336-27.5 27.5-.721 5.018 1.78 10.647 7.5 10.576 5.722.069 8.22-5.559 7.5-10.576 0-6.893 5.607-12.5 12.5-12.5 0 0 178.46.023 178.728.041v103.933c0 9.649 7.851 17.5 17.5 17.5h21.027c4.143 0 7.5-3.357 7.5-7.5s-3.357-7.5-7.5-7.5h-21.027c-1.379 0-2.5-1.121-2.5-2.5v-93.326l95.521 95.825h-37c-4.143 0-7.5 3.357-7.5 7.5s3.357 7.5 7.5 7.5h47.527c.015.255.037.508.037.766v188.226c0 4.143 3.357 7.5 7.5 7.5s7.5-3.357 7.5-7.5v-188.226c0-7.328-2.85-14.223-8.023-19.415z"/></g></svg>